<?xml version="1.0" standalone="no"?>
<!DOCTYPE svg PUBLIC "-//W3C//DTD SVG 20010904//EN"
 "http://www.w3.org/TR/2001/REC-SVG-20010904/DTD/svg10.dtd">
<svg version="1.0" xmlns="http://www.w3.org/2000/svg"
 width="225.000000pt" height="225.000000pt" viewBox="0 0 225.000000 225.000000"
 preserveAspectRatio="xMidYMid meet">
<metadata>
Created by potrace 1.11, written by Peter Selinger 2001-2013
</metadata>
<g transform="translate(0.000000,225.000000) scale(0.100000,-0.100000)"
fill="#000000" stroke="none">
<path d="M993 1752 c-15 -11 -33 -51 -54 -117 -17 -55 -34 -109 -39 -120 -13
-33 -82 -268 -84 -290 -2 -11 -6 -27 -9 -35 -4 -8 -20 -50 -35 -92 -22 -61
-31 -75 -40 -66 -7 7 -12 20 -12 29 0 10 -10 39 -21 66 -12 26 -27 71 -34 98
-8 28 -23 82 -35 120 -12 39 -25 86 -30 105 -22 85 -46 166 -51 175 -4 6 -9
26 -13 46 -11 60 -27 68 -146 69 -134 2 -141 0 -136 -54 2 -22 9 -57 16 -76 6
-19 22 -78 36 -130 26 -100 62 -225 71 -250 3 -8 7 -19 7 -25 1 -5 12 -44 25
-85 23 -76 27 -89 57 -195 9 -33 22 -76 29 -95 7 -19 21 -71 31 -115 20 -87
43 -160 59 -187 14 -24 163 -42 218 -27 46 12 62 25 71 59 4 14 11 34 16 45 5
11 23 65 39 120 40 133 59 184 82 222 11 17 20 47 21 67 1 22 6 36 14 36 7 0
14 10 16 23 2 12 9 21 17 19 7 -1 19 2 25 8 16 13 26 3 26 -26 0 -12 4 -24 8
-26 10 -4 83 -240 117 -378 9 -36 20 -79 24 -96 14 -53 42 -82 86 -89 35 -6
184 -2 223 6 13 3 62 99 62 123 0 9 4 16 9 16 5 0 12 7 15 16 3 9 2 12 -5 8
-6 -3 -4 7 5 24 8 16 32 79 52 138 19 60 40 113 45 119 5 5 9 21 9 35 0 15 3
30 7 34 9 9 33 77 33 95 0 8 8 33 19 55 10 23 24 62 31 89 7 26 17 47 21 47 5
0 9 8 9 18 0 20 23 89 33 98 4 4 7 19 7 34 0 14 4 30 9 36 4 5 14 32 21 59 7
28 16 55 20 60 4 6 8 37 8 70 0 47 -5 65 -21 83 -20 21 -29 23 -126 21 -79 -1
-109 -5 -120 -17 -22 -22 -48 -82 -87 -202 -19 -58 -38 -114 -43 -125 -4 -11
-17 -47 -27 -80 -10 -33 -21 -62 -24 -65 -3 -3 -12 -18 -20 -34 -8 -17 -25
-41 -37 -54 -22 -23 -24 -24 -47 -8 -16 10 -23 22 -20 31 4 8 2 15 -4 15 -9 0
-21 31 -27 70 -3 14 -34 120 -55 186 -6 18 -22 75 -36 129 -29 112 -42 138
-67 131 -9 -2 -15 0 -12 4 3 5 1 11 -5 15 -5 3 -10 2 -10 -4 0 -6 -7 -8 -15
-4 -27 10 -159 9 -174 -2 -11 -7 -13 -7 -7 3 10 16 5 15 -21 -6z m970 -43 c-9
-9 -12 -7 -10 9 1 14 5 18 11 12 7 -7 6 -14 -1 -21z m-715 -37 c-1 -41 -2 -44
-10 -22 -10 24 -11 24 -18 5 -7 -17 -9 -16 -9 9 -1 22 2 27 15 22 14 -5 15 -4
4 9 -9 11 -9 15 -1 15 7 0 9 5 5 12 -4 7 -3 8 4 4 6 -4 11 -28 10 -54z m-805
-540 c85 -294 160 -538 168 -544 11 -7 11 -11 1 -15 -6 -2 -9 -9 -6 -15 4 -6
1 -9 -7 -6 -7 2 -27 56 -45 119 -18 63 -60 213 -94 334 -35 121 -73 258 -85
305 -23 83 -45 165 -85 305 -11 39 -19 79 -19 90 1 13 4 10 10 -10 4 -16 78
-270 162 -563z m-45 581 c-21 -2 -55 -2 -75 0 -21 2 -4 4 37 4 41 0 58 -2 38
-4z m98 -23 c1 -14 36 -144 79 -290 42 -146 80 -274 82 -285 25 -100 56 -184
70 -189 14 -6 14 -8 -2 -20 -17 -12 -17 -17 -5 -45 7 -17 10 -34 7 -38 -8 -8
-5 -17 -82 257 -37 129 -89 313 -116 409 -27 96 -49 180 -49 187 0 7 -10 20
-22 29 l-23 16 30 -3 c24 -2 30 -8 31 -28z m544 5 c-7 -9 -15 -13 -17 -11 -7
7 7 26 19 26 6 0 6 -6 -2 -15z m752 -27 c-6 -6 -15 -8 -19 -4 -4 4 -1 11 7 16
19 12 27 3 12 -12z m-1341 -4 c6 -4 36 -100 80 -259 6 -22 18 -57 25 -77 8
-21 12 -38 9 -38 -3 0 2 -16 10 -37 8 -20 24 -70 35 -112 10 -42 31 -123 45
-181 15 -58 31 -109 36 -115 5 -5 9 -17 9 -26 0 -10 10 -25 21 -33 31 -21 59
0 95 74 16 32 32 59 35 59 4 1 6 -26 5 -58 0 -32 -4 -57 -8 -54 -5 2 -8 -10
-8 -27 0 -29 -19 -104 -40 -156 -7 -17 -20 -23 -69 -28 -35 -4 -68 -3 -79 3
-12 6 -27 43 -45 105 -15 53 -27 101 -27 107 0 6 -6 25 -14 42 -13 30 -17 42
-31 112 -4 17 -10 39 -15 50 -10 24 -119 400 -127 435 -2 14 -11 39 -19 57 -8
17 -14 38 -14 46 0 8 -7 34 -15 58 -15 41 -15 45 2 57 16 11 82 9 104 -4z
m1468 -17 c-1 -17 -2 -18 -6 -4 -2 9 -9 17 -14 17 -6 0 -7 5 -4 10 10 16 25 1
24 -23z m-724 -42 c5 -22 12 -42 15 -45 4 -3 7 -14 7 -25 1 -11 8 -45 17 -75
9 -30 13 -62 10 -72 -2 -9 0 -19 6 -23 5 -3 10 -18 10 -32 0 -26 7 -54 37
-141 12 -34 12 -46 2 -58 -9 -11 -9 -18 -1 -26 9 -9 12 -9 12 2 0 7 3 11 6 8
3 -3 7 -32 10 -65 2 -32 9 -79 15 -105 6 -26 8 -52 4 -57 -4 -7 0 -8 11 -4 12
4 15 3 10 -5 -4 -7 -3 -12 2 -12 14 0 21 -59 8 -64 -6 -2 1 -9 16 -14 20 -8
26 -16 21 -28 -5 -14 -3 -16 11 -11 14 6 17 3 12 -9 -5 -14 -4 -15 9 -4 12 10
15 10 15 -1 0 -11 2 -11 10 1 7 11 10 11 10 2 0 -9 5 -10 19 -2 14 7 22 7 27
-2 4 -6 3 -8 -3 -5 -6 4 -15 1 -20 -6 -13 -16 -9 -70 5 -75 7 -2 12 -8 12 -13
0 -14 -88 -11 -93 4 -3 7 -6 6 -6 -5 -1 -12 9 -18 32 -21 28 -3 26 -4 -10 -5
-40 -2 -48 4 -44 31 0 4 -3 7 -7 7 -4 0 -17 35 -27 78 -10 42 -22 79 -26 82
-4 3 -9 21 -12 40 -10 77 -31 155 -44 163 -9 5 -11 16 -7 29 4 14 2 18 -5 14
-7 -5 -9 2 -5 22 4 19 1 34 -10 45 -11 11 -14 25 -9 47 4 20 2 35 -6 39 -7 5
-12 32 -13 62 -1 61 -6 77 -19 58 -7 -11 -9 -10 -9 3 0 9 -5 29 -12 45 -11 28
-13 36 -16 60 -3 18 -62 73 -78 73 -9 0 -12 -5 -8 -12 5 -10 3 -10 -7 0 -12
11 -12 14 1 23 12 9 12 10 -3 5 -10 -3 -22 -6 -27 -6 -5 0 -13 -12 -18 -27
-10 -27 -10 -27 -8 8 0 21 4 35 7 33 3 -2 6 13 7 33 2 42 19 66 44 60 10 -3
18 -1 18 4 0 5 -8 9 -17 10 -12 1 -9 4 7 8 14 4 41 4 60 1 31 -5 36 -10 45
-45z m70 6 c-3 -12 3 -38 15 -62 12 -23 22 -62 23 -86 0 -24 3 -39 7 -33 3 6
11 -5 17 -25 6 -19 7 -33 2 -29 -5 3 -9 13 -9 22 0 14 -2 14 -9 3 -10 -16 -33
73 -24 96 3 7 1 13 -4 13 -12 0 -34 85 -27 105 9 22 16 19 9 -4z m-18 -83 c-3
-7 -5 -2 -5 12 0 14 2 19 5 13 2 -7 2 -19 0 -25z m10 -40 c-3 -8 -6 -5 -6 6
-1 11 2 17 5 13 3 -3 4 -12 1 -19z m-138 -31 c6 -8 8 -17 5 -20 -3 -3 3 -36
14 -74 45 -147 54 -180 72 -248 10 -38 32 -115 48 -170 17 -55 43 -145 57
-200 15 -55 32 -111 38 -125 13 -31 15 -80 3 -73 -4 3 -12 0 -16 -7 -8 -13
-30 -5 -30 11 0 6 5 7 10 4 14 -8 16 -20 -41 186 -106 389 -123 455 -123 486
0 18 -3 30 -7 28 -4 -3 -10 7 -14 23 -7 25 -8 25 -15 7 -7 -17 -9 -15 -9 12
-1 17 4 35 9 38 6 3 10 1 10 -6 0 -7 3 -10 6 -6 9 8 -27 97 -39 97 -5 0 -4 7
4 16 10 13 10 17 -2 25 -8 5 -9 9 -3 9 6 0 17 -6 23 -13z m158 -49 c-3 -8 -6
-5 -6 6 -1 11 2 17 5 13 3 -3 4 -12 1 -19z m-177 -6 c0 -5 -6 -17 -14 -27 -13
-18 -14 -18 -9 8 5 24 23 39 23 19z m230 -52 c1 8 10 -10 21 -40 13 -36 18
-67 14 -90 -4 -22 -2 -30 3 -22 7 11 11 8 16 -11 3 -14 8 -33 11 -44 3 -10 -2
-4 -10 12 l-15 30 6 -35 c4 -19 10 -44 15 -55 7 -19 8 -19 8 -1 1 11 3 17 6
14 9 -8 46 -140 48 -168 2 -19 8 -25 25 -24 21 1 21 -1 6 -17 -9 -10 -21 -16
-25 -13 -11 6 -11 -3 -3 -45 4 -17 10 -28 15 -25 5 3 9 1 9 -4 0 -5 -11 -9
-25 -9 -20 0 -24 3 -19 21 3 12 -24 138 -60 279 -64 251 -74 293 -56 252 6
-14 9 -15 10 -5z m-33 -22 c-3 -8 -6 -5 -6 6 -1 11 2 17 5 13 3 -3 4 -12 1
-19z m-207 2 c0 -5 -5 -10 -11 -10 -5 0 -7 5 -4 10 3 6 8 10 11 10 2 0 4 -4 4
-10z m238 -110 c0 -9 -3 -7 -8 5 -5 11 -8 29 -8 40 0 16 2 15 8 -5 4 -14 8
-32 8 -40z m-175 -70 c6 -33 6 -33 -7 5 -7 22 -16 56 -19 75 -6 33 -6 33 7 -5
7 -22 16 -56 19 -75z m206 -50 c0 -8 -7 5 -15 30 -7 25 -13 52 -13 60 0 8 7
-5 15 -30 7 -25 13 -52 13 -60z m-176 -65 c4 -25 4 -33 -2 -20 -4 11 -11 38
-14 60 -4 25 -4 33 2 20 4 -11 11 -38 14 -60z m211 -65 c15 -58 30 -114 33
-125 3 -11 2 -17 -1 -14 -8 8 -66 217 -66 238 0 28 8 4 34 -99z m-517 -12 c-3
-7 -5 -2 -5 12 0 14 2 19 5 13 2 -7 2 -19 0 -25z m352 -98 c0 -8 -9 14 -20 50
-10 36 -19 70 -18 75 1 15 39 -108 38 -125z m-459 73 c-11 -17 -11 -17 -6 0 3
10 6 24 7 30 0 9 2 9 5 0 3 -7 0 -20 -6 -30z m479 -138 c0 -5 -4 -3 -9 5 -5 8
-9 22 -9 30 0 16 17 -16 18 -35z m8 -37 c-3 -8 -6 -5 -6 6 -1 11 2 17 5 13 3
-3 4 -12 1 -19z m10 -40 c-3 -8 -6 -5 -6 6 -1 11 2 17 5 13 3 -3 4 -12 1 -19z
m42 -143 c-1 -16 -26 57 -32 95 -4 19 2 8 13 -25 11 -33 19 -64 19 -70z m261
-45 c-20 -13 -33 -13 -25 0 3 6 14 10 23 10 15 0 15 -2 2 -10z"/>
<path d="M1210 1045 c0 -5 5 -17 10 -25 5 -8 10 -10 10 -5 0 6 -5 17 -10 25
-5 8 -10 11 -10 5z"/>
<path d="M1231 964 c0 -11 3 -14 6 -6 3 7 2 16 -1 19 -3 4 -6 -2 -5 -13z"/>
<path d="M1241 935 c0 -5 10 -46 24 -90 13 -44 24 -73 24 -65 1 17 -47 170
-48 155z"/>
<path d="M1291 755 c0 -5 8 -37 19 -70 11 -33 17 -44 13 -25 -6 38 -31 111
-32 95z"/>
<path d="M1331 604 c0 -11 3 -14 6 -6 3 7 2 16 -1 19 -3 4 -6 -2 -5 -13z"/>
<path d="M1342 1285 c0 -11 4 -31 8 -45 6 -20 8 -21 8 -5 0 11 -4 31 -8 45 -6
20 -8 21 -8 5z"/>
<path d="M1402 1050 c0 -14 2 -19 5 -12 2 6 2 18 0 25 -3 6 -5 1 -5 -13z"/>
<path d="M1411 1010 c0 -8 4 -24 9 -35 5 -13 9 -14 9 -5 0 8 -4 24 -9 35 -5
13 -9 14 -9 5z"/>
</g>
</svg>
