<?xml version="1.0" encoding="utf-8"?>
<!-- Generator: Adobe Illustrator 16.0.0, SVG Export Plug-In . SVG Version: 6.00 Build 0)  -->
<!DOCTYPE svg PUBLIC "-//W3C//DTD SVG 1.1//EN" "http://www.w3.org/Graphics/SVG/1.1/DTD/svg11.dtd">
<svg version="1.1" id="Layer_1" xmlns="http://www.w3.org/2000/svg" xmlns:xlink="http://www.w3.org/1999/xlink" x="0px" y="0px"
	 width="644.4px" height="591.84px" viewBox="0 0 644.4 591.84" enable-background="new 0 0 644.4 591.84" xml:space="preserve">
<g>
	<path fill="#989897" d="M91.221,183.024c-5.897-18.183-11.304-29.977-18.182-34.89c-5.406-3.44-15.234-4.424-19.656-4.424
		c-4.914,0-7.863-0.491-7.863-4.422c0-3.44,3.932-4.423,10.811-4.424c25.555,0,52.582,1.475,57.004,1.475
		c4.423,0,26.044-1.475,54.546-1.473c6.88,0,10.319,1.475,10.319,4.423c0,3.932-3.931,4.422-8.846,4.422
		c-3.93,0-8.845,0-12.284,1.966c-4.423,1.965-5.405,5.405-5.405,10.811c0,6.388,4.914,23.096,10.811,45.209
		c8.354,32.433,54.056,181.33,62.9,208.849h1.475l95.333-256.516c4.913-13.76,8.353-17.691,12.285-17.691
		c5.405,0,7.863,7.371,14.25,23.096l102.214,247.669h1.475c8.845-32.925,48.158-162.656,65.356-220.15
		c3.439-11.303,4.914-21.623,4.914-28.501c0-7.863-4.423-14.743-23.587-14.743c-4.915,0-8.354-1.475-8.354-4.422
		c0-3.44,3.932-4.423,11.304-4.424c26.044,0,46.685,1.475,51.106,1.475c3.439,0,24.57-1.475,40.785-1.473
		c5.405,0,8.845,0.982,8.845,3.931c0,3.44-2.457,4.914-6.88,4.914c-4.913,0-11.794,0.492-17.199,2.457
		c-11.794,4.423-17.198,24.079-27.518,52.089c-22.605,61.918-74.205,218.186-98.283,291.896c-5.405,17.2-7.862,23.097-14.251,23.097
		c-4.913,0-7.861-5.896-15.232-24.079L321.199,242.484h-0.981c-9.337,25.062-74.695,199.512-95.825,244.721
		c-9.338,20.148-11.794,26.045-17.69,26.045c-4.914,0-6.88-5.405-11.304-18.182L91.221,183.024z"/>
</g>
</svg>
